<?xml version="1.0" encoding="UTF-8" standalone="no"?>
<svg xmlns="http://www.w3.org/2000/svg" viewBox="0 0 24 24">
  <path
     d="M13.52,5.93l.41-.41"
     id="path14" />
  <path
     id="path2-8"
     d="M 8.8723908,15.982827 C 8.8349518,15.195791 8.1842497,14.558716 7.4278736,14.55875 c -0.415644,3.4e-5 -0.7904424,0.156739 -1.0664142,0.446337 -0.255532,0.269159 -0.3918317,0.623484 -0.3782051,0.998282 -0.013661,0.374764 0.1192324,0.725682 0.378171,0.998247 0.00681,0.0068 0.017033,0.01703 0.023847,0.02385 v 0 c 0.2725652,0.272565 0.6405162,0.422423 1.0425337,0.42927 0.7597827,-0.0034 1.4071463,-0.637177 1.4446193,-1.424179 0.00334,-0.01703 -3.4e-5,-0.0341 -3.45e-5,-0.04773 z" />
  <path
     id="path2"
     d="m 15.949219,2.40625 c -0.7625,0 -1.5125,0.3003906 -2.0625,0.9003906 L 3.2871094,13.90625 c -1.2,1.2 -1.2,3.101172 0,4.201172 l 2.5996094,2.599609 c 1.2,1.2 3.0992188,1.2 4.1992192,0 L 20.6875,10.107422 c 1.2,-1.2000001 1.2,-3.101172 0,-4.201172 L 18.085938,3.3066406 C 17.485937,2.7066406 16.711719,2.40625 15.949219,2.40625 Z m 0.03711,1.5996094 c 1.333034,1.3356089 2.66444,2.6666699 4,4 L 18.960938,9.03125 17.853516,7.9257812 c -0.187891,-0.1879391 -0.491797,-0.1879391 -0.679688,0 -0.187891,0.1879392 -0.187891,0.4917965 0,0.6796876 l 1.107422,1.1054687 v 0.00195 L 17.236328,10.755859 14.917969,8.4023438 c -0.187891,-0.1879391 -0.489844,-0.1918491 -0.677735,-0.00391 -0.187891,0.1879391 -0.193774,0.4898441 -0.0059,0.6777344 l 2.324219,2.3574221 -1.027344,1.027344 -1.123047,-1.125 c -0.187889,-0.18794 -0.491796,-0.18794 -0.679687,0 -0.187891,0.187939 -0.187891,0.491796 0,0.679687 l 1.123046,1.125 -1.02539,1.025391 -2.117188,-2.083985 c -0.187891,-0.187939 -0.494661,-0.182055 -0.677734,0.0059 -0.18789,0.187939 -0.183961,0.496613 0.0039,0.679687 l 2.111328,2.078125 -5.1601559,5.160156 -4,-4 z" />
</svg>
