<svg xmlns="http://www.w3.org/2000/svg" viewBox="0 0 30 30">
  <path
     id="path2"
     d="m 6,2.998047 3,8 C 8.1906943,13.707378 7.2702824,16.15875 6.296875,18.626953 H 6.1386719 2.8808594 c -0.2657519,3.4e-5 -0.4804688,0.214751 -0.4804688,0.480469 v 7.583984 c 0,0.129453 0.050565,0.249784 0.1425782,0.341797 0.092013,0.09201 0.2157171,0.139138 0.3417968,0.142578 H 27.189453 c 0.262277,-0.0034 0.478516,-0.218657 0.478516,-0.484375 v -7.583984 c 3.4e-5,-0.265752 -0.214717,-0.480503 -0.480469,-0.480469 h -3.326172 -0.002 L 21,10.998047 21.849609,8.736328 22.197266,7.806641 24,2.998047 Z m 1.4433594,1 H 22.556641 l -1.328125,3.544922 -0.220704,0.58789 -0.128906,0.34375 -0.814453,2.171875 -0.132812,0.34961 0.132812,0.351562 c 1.003418,2.679557 1.769939,4.720338 2.728516,7.279297 H 7.2089844 C 8.1316572,16.162611 9.1274783,13.504955 9.9355469,11.349609 L 10.068359,10.998047 9.9355469,10.646484 9.1210938,8.476563 8.8632812,7.787109 8.7714842,7.542969 Z M 26.730469,19.59375 v 6.617188 l -2.210938,-0.0039 -0.02344,-3.314453 c 3.4e-5,-0.265752 -0.22203,-0.480003 -0.484375,-0.476562 -0.265752,3.4e-5 -0.479969,0.222063 -0.476563,0.484375 l 0.02344,3.30664 h -1.472656 v -1.566406 c 3.3e-5,-0.265752 -0.214717,-0.480503 -0.480469,-0.480469 -0.265752,3.4e-5 -0.480469,0.214751 -0.480469,0.480469 v 1.566406 h -1.451172 l -0.002,-3.30664 c 3.4e-5,-0.265752 -0.214717,-0.480503 -0.480469,-0.480469 -0.265752,3.4e-5 -0.480469,0.214751 -0.480468,0.480469 l 0.002,3.30664 h -1.451172 v -1.566406 c 3.4e-5,-0.265752 -0.214717,-0.480503 -0.480469,-0.480469 -0.265752,3.4e-5 -0.480469,0.214751 -0.480469,0.480469 v 1.566406 h -1.478515 l 0.02734,-3.304687 c 3.4e-5,-0.265752 -0.21081,-0.482456 -0.476562,-0.482422 -0.265752,3.4e-5 -0.484375,0.210845 -0.484375,0.476562 l -0.02344,3.314454 h -1.451172 v -1.59375 c 3.6e-5,-0.265752 -0.214716,-0.480503 -0.480468,-0.480469 -0.265752,3.4e-5 -0.480469,0.214751 -0.480469,0.480469 v 1.59375 H 10.001947 L 9.97851,23.236335 c 3.41e-5,-0.265752 -0.2220297,-0.480003 -0.484375,-0.476562 -0.2657519,3.4e-5 -0.4799691,0.222063 -0.4765625,0.484375 l 0.023437,2.966797 h -5.65625 V 19.59571 Z"
     />
  <path
     id="path2-8"
     d="m 7.4942905,22.879704 c -0.037439,-0.787036 -0.6881411,-1.424111 -1.4445172,-1.424077 -0.415644,3.4e-5 -0.7904424,0.156739 -1.0664142,0.446337 -0.255532,0.269159 -0.3918317,0.623484 -0.3782051,0.998282 -0.013661,0.374764 0.1192324,0.725682 0.378171,0.998247 0.00681,0.0068 0.017033,0.01703 0.023847,0.02385 v 0 c 0.2725652,0.272565 0.6405162,0.422423 1.0425337,0.42927 0.7597827,-0.0034 1.4071463,-0.637177 1.4446193,-1.424179 0.00334,-0.01703 -3.4e-5,-0.0341 -3.45e-5,-0.04773 z m -1.4514326,0.504319 c -0.1464855,-0.0034 -0.2759719,-0.05788 -0.3679852,-0.149892 -0.054506,-0.06132 -0.1192324,-0.160112 -0.1124191,-0.310005 0.00341,-0.01703 0,-0.03407 0,-0.04769 -0.01022,-0.146486 0.05454,-0.252126 0.1124532,-0.310039 0.091979,-0.09879 0.2248722,-0.149926 0.3679511,-0.149926 0.1192323,0.0034 0.2350581,0.05791 0.320224,0.143079 0.088573,0.08857 0.1498921,0.211212 0.1601461,0.344105 -0.023812,0.262277 -0.2418713,0.480336 -0.4803701,0.48037 z"
     />
</svg>
