<?xml version="1.0" encoding="UTF-8" standalone="no"?>
<svg
   version="1.1"
   viewBox="0 0 24 24"
   id="svg4"
   sodipodi:docname="Unlocked.svg"
   inkscape:version="1.2 (dc2aedaf03, 2022-05-15)"
   xmlns:inkscape="http://www.inkscape.org/namespaces/inkscape"
   xmlns:sodipodi="http://sodipodi.sourceforge.net/DTD/sodipodi-0.dtd"
   xmlns="http://www.w3.org/2000/svg"
   xmlns:svg="http://www.w3.org/2000/svg">
  <defs
     id="defs8" />
  <sodipodi:namedview
     id="namedview6"
     pagecolor="#ffffff"
     bordercolor="#999999"
     borderopacity="1"
     inkscape:showpageshadow="0"
     inkscape:pageopacity="0"
     inkscape:pagecheckerboard="0"
     inkscape:deskcolor="#d1d1d1"
     showgrid="false"
     inkscape:zoom="48.625"
     inkscape:cx="11.383033"
     inkscape:cy="12.041131"
     inkscape:window-width="3200"
     inkscape:window-height="1721"
     inkscape:window-x="-9"
     inkscape:window-y="-9"
     inkscape:window-maximized="1"
     inkscape:current-layer="svg4" />
  <path
     id="path2"
     d="m 9,1.328125 c -1.6999953,0 -3,1.3000037 -3,3 v 2.0625 h 2 v -3.0625 h 8 V 10 H 5 c -1.6999983,0 -3,1.300002 -3,3 v 6 c 0,1.699998 1.3000017,3 3,3 h 14 c 1.699998,0 3,-1.300002 3,-3 v -6 c 0,-1.699998 -1.300002,-3 -3,-3 H 18 V 4.328125 c 0,-1.6999963 -1.300004,-3 -3,-3 z M 4,12 h 16 v 8 H 4 Z"
     sodipodi:nodetypes="sscccccsssssssscsssccccc" />
  <path
     id="circle2871"
     d="m 12,13.75 a 1.5,1.5 0 0 0 -1.5,1.5 1.5,1.5 0 0 0 0.5,1.115234 V 18.25 h 2 V 16.365234 A 1.5,1.5 0 0 0 13.5,15.25 1.5,1.5 0 0 0 12,13.75 Z" />
</svg>
